<svg id="visual" viewBox="0 0 900 900" width="900" height="900" xmlns="http://www.w3.org/2000/svg" xmlns:xlink="http://www.w3.org/1999/xlink" version="1.1"><g stroke-width="1" stroke-linejoin="bevel"><path d="M441 467L404.7 444L368.7 495.3Z" fill="#12161f" stroke="#12161f"></path><path d="M368.7 495.3L449 533.3L441 467Z" fill="#0f131b" stroke="#0f131b"></path><path d="M368.7 495.3L403.7 577.6L449 533.3Z" fill="#11161e" stroke="#11161e"></path><path d="M318.4 435L314.4 518.3L368.7 495.3Z" fill="#0f131b" stroke="#0f131b"></path><path d="M368.7 495.3L336.4 567.6L403.7 577.6Z" fill="#0f131b" stroke="#0f131b"></path><path d="M404.7 444L318.4 435L368.7 495.3Z" fill="#12161f" stroke="#12161f"></path><path d="M403.7 577.6L469 559.6L449 533.3Z" fill="#11161e" stroke="#11161e"></path><path d="M499.3 531.3L507.3 458L441 467Z" fill="#11151d" stroke="#11151d"></path><path d="M507.3 458L468 399.7L441 467Z" fill="#121720" stroke="#121720"></path><path d="M441 467L468 399.7L404.7 444Z" fill="#11161e" stroke="#11161e"></path><path d="M404.7 444L320.4 403.7L318.4 435Z" fill="#10141c" stroke="#10141c"></path><path d="M499.3 531.3L441 467L449 533.3Z" fill="#11161e" stroke="#11161e"></path><path d="M469 559.6L499.3 531.3L449 533.3Z" fill="#11161e" stroke="#11161e"></path><path d="M314.4 518.3L336.4 567.6L368.7 495.3Z" fill="#11161e" stroke="#11161e"></path><path d="M369.7 367.7L320.4 403.7L404.7 444Z" fill="#0f131b" stroke="#0f131b"></path><path d="M468 399.7L369.7 367.7L404.7 444Z" fill="#10141b" stroke="#10141b"></path><path d="M272.1 377.7L273.1 457L318.4 435Z" fill="#10141b" stroke="#10141b"></path><path d="M318.4 435L273.1 457L314.4 518.3Z" fill="#131721" stroke="#131721"></path><path d="M314.4 518.3L261.1 561.6L336.4 567.6Z" fill="#11151d" stroke="#11151d"></path><path d="M387.7 631.9L443 625.9L403.7 577.6Z" fill="#0f131b" stroke="#0f131b"></path><path d="M403.7 577.6L443 625.9L469 559.6Z" fill="#0e1219" stroke="#0e1219"></path><path d="M469 559.6L520.3 594.6L499.3 531.3Z" fill="#0e1219" stroke="#0e1219"></path><path d="M336.4 567.6L387.7 631.9L403.7 577.6Z" fill="#0f131b" stroke="#0f131b"></path><path d="M460 330.4L369.7 331.4L369.7 367.7Z" fill="#0e1219" stroke="#0e1219"></path><path d="M369.7 367.7L337.4 336.4L320.4 403.7Z" fill="#12161f" stroke="#12161f"></path><path d="M320.4 403.7L272.1 377.7L318.4 435Z" fill="#10141b" stroke="#10141b"></path><path d="M579.6 520.3L558.6 449L507.3 458Z" fill="#10141b" stroke="#10141b"></path><path d="M507.3 458L533.3 384.7L468 399.7Z" fill="#0f131b" stroke="#0f131b"></path><path d="M468 399.7L460 330.4L369.7 367.7Z" fill="#131721" stroke="#131721"></path><path d="M579.6 520.3L507.3 458L499.3 531.3Z" fill="#0f131b" stroke="#0f131b"></path><path d="M513.3 622.9L520.3 594.6L469 559.6Z" fill="#11151d" stroke="#11151d"></path><path d="M558.6 449L533.3 384.7L507.3 458Z" fill="#0f131b" stroke="#0f131b"></path><path d="M369.7 331.4L337.4 336.4L369.7 367.7Z" fill="#131822" stroke="#131822"></path><path d="M180.9 432L245.1 502.3L273.1 457Z" fill="#11161e" stroke="#11161e"></path><path d="M273.1 457L245.1 502.3L314.4 518.3Z" fill="#131822" stroke="#131822"></path><path d="M336.4 567.6L325.4 648.9L387.7 631.9Z" fill="#0f131a" stroke="#0f131a"></path><path d="M511.3 340.4L460 330.4L468 399.7Z" fill="#121720" stroke="#121720"></path><path d="M245.1 502.3L261.1 561.6L314.4 518.3Z" fill="#0f131b" stroke="#0f131b"></path><path d="M337.4 336.4L272.1 377.7L320.4 403.7Z" fill="#10141b" stroke="#10141b"></path><path d="M443 625.9L513.3 622.9L469 559.6Z" fill="#11161e" stroke="#11161e"></path><path d="M520.3 594.6L579.6 520.3L499.3 531.3Z" fill="#0f131b" stroke="#0f131b"></path><path d="M445 690.1L513.3 622.9L443 625.9Z" fill="#131721" stroke="#131721"></path><path d="M533.3 384.7L511.3 340.4L468 399.7Z" fill="#0e1219" stroke="#0e1219"></path><path d="M593.6 568.6L579.6 520.3L520.3 594.6Z" fill="#121720" stroke="#121720"></path><path d="M261.1 561.6L325.4 648.9L336.4 567.6Z" fill="#0e1219" stroke="#0e1219"></path><path d="M403.7 694.1L445 690.1L443 625.9Z" fill="#131721" stroke="#131721"></path><path d="M635.9 432L560.6 381.7L558.6 449Z" fill="#131721" stroke="#131721"></path><path d="M558.6 449L560.6 381.7L533.3 384.7Z" fill="#10141c" stroke="#10141c"></path><path d="M533.3 384.7L560.6 381.7L511.3 340.4Z" fill="#11161e" stroke="#11161e"></path><path d="M582.6 661.9L593.6 568.6L520.3 594.6Z" fill="#0e1219" stroke="#0e1219"></path><path d="M579.6 520.3L632.9 515.3L558.6 449Z" fill="#131822" stroke="#131822"></path><path d="M403.7 694.1L443 625.9L387.7 631.9Z" fill="#10141c" stroke="#10141c"></path><path d="M513.3 622.9L582.6 661.9L520.3 594.6Z" fill="#11151d" stroke="#11151d"></path><path d="M325.4 648.9L403.7 694.1L387.7 631.9Z" fill="#131822" stroke="#131822"></path><path d="M245.1 502.3L210.9 570.6L261.1 561.6Z" fill="#11151d" stroke="#11151d"></path><path d="M261.1 561.6L247.1 655.9L325.4 648.9Z" fill="#0f131b" stroke="#0f131b"></path><path d="M176.9 512.3L210.9 570.6L245.1 502.3Z" fill="#10141b" stroke="#10141b"></path><path d="M369.7 331.4L330.4 272.1L337.4 336.4Z" fill="#131721" stroke="#131721"></path><path d="M337.4 336.4L238.1 331.4L272.1 377.7Z" fill="#11161e" stroke="#11161e"></path><path d="M370.7 255.1L330.4 272.1L369.7 331.4Z" fill="#11151d" stroke="#11151d"></path><path d="M370.7 255.1L369.7 331.4L436 244.1Z" fill="#0f131a" stroke="#0f131a"></path><path d="M248.1 276.1L238.1 331.4L337.4 336.4Z" fill="#131721" stroke="#131721"></path><path d="M272.1 377.7L180.9 432L273.1 457Z" fill="#131721" stroke="#131721"></path><path d="M593.6 568.6L632.9 515.3L579.6 520.3Z" fill="#10141b" stroke="#10141b"></path><path d="M177.9 376.7L180.9 432L272.1 377.7Z" fill="#0e1219" stroke="#0e1219"></path><path d="M436 244.1L369.7 331.4L460 330.4Z" fill="#10141b" stroke="#10141b"></path><path d="M180.9 432L176.9 512.3L245.1 502.3Z" fill="#121720" stroke="#121720"></path><path d="M247.1 655.9L305.4 693.1L325.4 648.9Z" fill="#12161f" stroke="#12161f"></path><path d="M325.4 648.9L305.4 693.1L403.7 694.1Z" fill="#0e1219" stroke="#0e1219"></path><path d="M185.9 637.9L247.1 655.9L210.9 570.6Z" fill="#11161e" stroke="#11161e"></path><path d="M210.9 570.6L247.1 655.9L261.1 561.6Z" fill="#10141c" stroke="#10141c"></path><path d="M632.9 515.3L635.9 432L558.6 449Z" fill="#12161f" stroke="#12161f"></path><path d="M560.6 381.7L588.6 332.4L511.3 340.4Z" fill="#0f131a" stroke="#0f131a"></path><path d="M652.9 402.7L588.6 332.4L560.6 381.7Z" fill="#131721" stroke="#131721"></path><path d="M521.3 254.1L436 244.1L460 330.4Z" fill="#0e1219" stroke="#0e1219"></path><path d="M521.3 254.1L460 330.4L511.3 340.4Z" fill="#10141c" stroke="#10141c"></path><path d="M238.1 331.4L177.9 376.7L272.1 377.7Z" fill="#11161e" stroke="#11161e"></path><path d="M180.9 432L137.6 433L176.9 512.3Z" fill="#121720" stroke="#121720"></path><path d="M566.6 699.1L582.6 661.9L513.3 622.9Z" fill="#0f131b" stroke="#0f131b"></path><path d="M593.6 568.6L652.9 586.6L632.9 515.3Z" fill="#131721" stroke="#131721"></path><path d="M575.6 262.1L521.3 254.1L511.3 340.4Z" fill="#11161e" stroke="#11161e"></path><path d="M445 690.1L524.3 710.1L513.3 622.9Z" fill="#10141b" stroke="#10141b"></path><path d="M459 751.4L524.3 710.1L445 690.1Z" fill="#11161e" stroke="#11161e"></path><path d="M459 751.4L445 690.1L403.7 694.1Z" fill="#0e1219" stroke="#0e1219"></path><path d="M320.4 203.9L248.1 276.1L330.4 272.1Z" fill="#121720" stroke="#121720"></path><path d="M330.4 272.1L248.1 276.1L337.4 336.4Z" fill="#10141c" stroke="#10141c"></path><path d="M238.1 331.4L186.9 301.4L177.9 376.7Z" fill="#11151d" stroke="#11151d"></path><path d="M715.1 455L652.9 402.7L635.9 432Z" fill="#10141c" stroke="#10141c"></path><path d="M635.9 432L652.9 402.7L560.6 381.7Z" fill="#10141b" stroke="#10141b"></path><path d="M588.6 332.4L575.6 262.1L511.3 340.4Z" fill="#10141c" stroke="#10141c"></path><path d="M636.9 625.9L652.9 586.6L593.6 568.6Z" fill="#11151d" stroke="#11151d"></path><path d="M632.9 515.3L715.1 455L635.9 432Z" fill="#11151d" stroke="#11151d"></path><path d="M137.6 582.6L185.9 637.9L210.9 570.6Z" fill="#0e1219" stroke="#0e1219"></path><path d="M247.1 655.9L244.1 702.1L305.4 693.1Z" fill="#121720" stroke="#121720"></path><path d="M524.3 710.1L566.6 699.1L513.3 622.9Z" fill="#0f131b" stroke="#0f131b"></path><path d="M582.6 661.9L636.9 625.9L593.6 568.6Z" fill="#11151d" stroke="#11151d"></path><path d="M653.9 721.1L636.9 625.9L582.6 661.9Z" fill="#11161e" stroke="#11161e"></path><path d="M185.9 637.9L244.1 702.1L247.1 655.9Z" fill="#11151d" stroke="#11151d"></path><path d="M377.7 778.4L459 751.4L403.7 694.1Z" fill="#0f131b" stroke="#0f131b"></path><path d="M138.6 366.7L137.6 433L177.9 376.7Z" fill="#131721" stroke="#131721"></path><path d="M177.9 376.7L137.6 433L180.9 432Z" fill="#0f131b" stroke="#0f131b"></path><path d="M176.9 512.3L137.6 582.6L210.9 570.6Z" fill="#11161e" stroke="#11161e"></path><path d="M377.7 778.4L403.7 694.1L305.4 693.1Z" fill="#131822" stroke="#131822"></path><path d="M524.3 710.1L526.3 759.4L566.6 699.1Z" fill="#10141c" stroke="#10141c"></path><path d="M654.9 319.4L575.6 262.1L588.6 332.4Z" fill="#0f131a" stroke="#0f131a"></path><path d="M506.3 203.9L449 205.9L436 244.1Z" fill="#11161e" stroke="#11161e"></path><path d="M436 244.1L369.7 191.9L370.7 255.1Z" fill="#10141c" stroke="#10141c"></path><path d="M370.7 255.1L320.4 203.9L330.4 272.1Z" fill="#0f131a" stroke="#0f131a"></path><path d="M506.3 203.9L436 244.1L521.3 254.1Z" fill="#131721" stroke="#131721"></path><path d="M248.1 276.1L186.9 301.4L238.1 331.4Z" fill="#0e1219" stroke="#0e1219"></path><path d="M113.6 514.3L137.6 582.6L176.9 512.3Z" fill="#0e1219" stroke="#0e1219"></path><path d="M186.9 301.4L138.6 366.7L177.9 376.7Z" fill="#0f131b" stroke="#0f131b"></path><path d="M369.7 191.9L320.4 203.9L370.7 255.1Z" fill="#10141b" stroke="#10141b"></path><path d="M248.1 276.1L209.9 239.1L186.9 301.4Z" fill="#11151d" stroke="#11151d"></path><path d="M449 205.9L369.7 191.9L436 244.1Z" fill="#121720" stroke="#121720"></path><path d="M78.3 454L113.6 514.3L137.6 433Z" fill="#10141c" stroke="#10141c"></path><path d="M137.6 433L113.6 514.3L176.9 512.3Z" fill="#131721" stroke="#131721"></path><path d="M575.6 185.9L506.3 203.9L521.3 254.1Z" fill="#11161e" stroke="#11161e"></path><path d="M449 205.9L402.7 141.6L369.7 191.9Z" fill="#0e1219" stroke="#0e1219"></path><path d="M303.4 771.4L377.7 778.4L305.4 693.1Z" fill="#12161f" stroke="#12161f"></path><path d="M715.1 340.4L654.9 319.4L652.9 402.7Z" fill="#12161f" stroke="#12161f"></path><path d="M652.9 402.7L654.9 319.4L588.6 332.4Z" fill="#0f131b" stroke="#0f131b"></path><path d="M575.6 262.1L575.6 185.9L521.3 254.1Z" fill="#0e1219" stroke="#0e1219"></path><path d="M439 831.7L526.3 759.4L459 751.4Z" fill="#10141b" stroke="#10141b"></path><path d="M459 751.4L526.3 759.4L524.3 710.1Z" fill="#11151d" stroke="#11151d"></path><path d="M653.9 721.1L692.1 626.9L636.9 625.9Z" fill="#0e1219" stroke="#0e1219"></path><path d="M260.1 759.4L305.4 693.1L244.1 702.1Z" fill="#11151d" stroke="#11151d"></path><path d="M260.1 759.4L303.4 771.4L305.4 693.1Z" fill="#11151d" stroke="#11151d"></path><path d="M724.1 513.3L632.9 515.3L652.9 586.6Z" fill="#0f131b" stroke="#0f131b"></path><path d="M724.1 513.3L715.1 455L632.9 515.3Z" fill="#12161f" stroke="#12161f"></path><path d="M177.9 723.1L260.1 759.4L244.1 702.1Z" fill="#11151d" stroke="#11151d"></path><path d="M177.9 723.1L244.1 702.1L185.9 637.9Z" fill="#131721" stroke="#131721"></path><path d="M274.1 176.9L209.9 239.1L248.1 276.1Z" fill="#10141c" stroke="#10141c"></path><path d="M186.9 301.4L119.6 324.4L138.6 366.7Z" fill="#131822" stroke="#131822"></path><path d="M64.3 622.9L131.6 639.9L137.6 582.6Z" fill="#121720" stroke="#121720"></path><path d="M137.6 582.6L131.6 639.9L185.9 637.9Z" fill="#11161e" stroke="#11161e"></path><path d="M723.1 597.6L724.1 513.3L652.9 586.6Z" fill="#11151d" stroke="#11151d"></path><path d="M653.9 721.1L582.6 661.9L566.6 699.1Z" fill="#131721" stroke="#131721"></path><path d="M636.9 625.9L692.1 626.9L652.9 586.6Z" fill="#10141b" stroke="#10141b"></path><path d="M136.6 263.1L119.6 324.4L186.9 301.4Z" fill="#10141c" stroke="#10141c"></path><path d="M83.3 404.7L78.3 454L137.6 433Z" fill="#11151d" stroke="#11151d"></path><path d="M83.3 404.7L137.6 433L138.6 366.7Z" fill="#10141c" stroke="#10141c"></path><path d="M113.6 514.3L56.3 587.6L137.6 582.6Z" fill="#131721" stroke="#131721"></path><path d="M137.6 709.1L177.9 723.1L185.9 637.9Z" fill="#10141c" stroke="#10141c"></path><path d="M119.6 324.4L83.3 404.7L138.6 366.7Z" fill="#12161f" stroke="#12161f"></path><path d="M320.4 203.9L274.1 176.9L248.1 276.1Z" fill="#0f131b" stroke="#0f131b"></path><path d="M209.9 239.1L136.6 263.1L186.9 301.4Z" fill="#11151d" stroke="#11151d"></path><path d="M316.4 134.6L274.1 176.9L320.4 203.9Z" fill="#11161e" stroke="#11161e"></path><path d="M316.4 134.6L320.4 203.9L369.7 191.9Z" fill="#11151d" stroke="#11151d"></path><path d="M715.1 455L722.1 378.7L652.9 402.7Z" fill="#121720" stroke="#121720"></path><path d="M769.4 398.7L722.1 378.7L715.1 455Z" fill="#0e1219" stroke="#0e1219"></path><path d="M515.3 854.7L571.6 776.4L526.3 759.4Z" fill="#131822" stroke="#131822"></path><path d="M526.3 759.4L571.6 776.4L566.6 699.1Z" fill="#121720" stroke="#121720"></path><path d="M751.4 590.6L723.1 597.6L783.4 627.9Z" fill="#11161e" stroke="#11161e"></path><path d="M692.1 626.9L723.1 597.6L652.9 586.6Z" fill="#0f131a" stroke="#0f131a"></path><path d="M0 455L65.3 500.3L78.3 454Z" fill="#0e1219" stroke="#0e1219"></path><path d="M78.3 454L65.3 500.3L113.6 514.3Z" fill="#0f131b" stroke="#0f131b"></path><path d="M722.1 378.7L715.1 340.4L652.9 402.7Z" fill="#131721" stroke="#131721"></path><path d="M648.9 199.9L575.6 185.9L575.6 262.1Z" fill="#11151d" stroke="#11151d"></path><path d="M439 132.6L402.7 141.6L449 205.9Z" fill="#0e1219" stroke="#0e1219"></path><path d="M655.9 238.1L575.6 262.1L654.9 319.4Z" fill="#11161e" stroke="#11161e"></path><path d="M506.3 203.9L439 132.6L449 205.9Z" fill="#131822" stroke="#131822"></path><path d="M637.9 755.4L653.9 721.1L566.6 699.1Z" fill="#11161e" stroke="#11161e"></path><path d="M175.9 195.9L136.6 263.1L209.9 239.1Z" fill="#10141c" stroke="#10141c"></path><path d="M119.6 324.4L56.3 320.4L83.3 404.7Z" fill="#131721" stroke="#131721"></path><path d="M714.1 250.1L655.9 238.1L654.9 319.4Z" fill="#12161f" stroke="#12161f"></path><path d="M377.7 848.7L439 831.7L377.7 778.4Z" fill="#10141c" stroke="#10141c"></path><path d="M377.7 778.4L439 831.7L459 751.4Z" fill="#11161e" stroke="#11161e"></path><path d="M377.7 848.7L377.7 778.4L323.4 849.7Z" fill="#10141c" stroke="#10141c"></path><path d="M79.3 718.1L137.6 709.1L131.6 639.9Z" fill="#11161e" stroke="#11161e"></path><path d="M131.6 639.9L137.6 709.1L185.9 637.9Z" fill="#12161f" stroke="#12161f"></path><path d="M323.4 849.7L303.4 771.4L238.1 821.7Z" fill="#10141b" stroke="#10141b"></path><path d="M526.3 118.6L439 132.6L506.3 203.9Z" fill="#131822" stroke="#131822"></path><path d="M589.6 836.7L637.9 755.4L571.6 776.4Z" fill="#10141c" stroke="#10141c"></path><path d="M571.6 776.4L637.9 755.4L566.6 699.1Z" fill="#0f131a" stroke="#0f131a"></path><path d="M783.4 627.9L723.1 597.6L692.1 626.9Z" fill="#10141c" stroke="#10141c"></path><path d="M402.7 141.6L316.4 134.6L369.7 191.9Z" fill="#10141b" stroke="#10141b"></path><path d="M274.1 176.9L175.9 195.9L209.9 239.1Z" fill="#10141c" stroke="#10141c"></path><path d="M331.4 76.3L316.4 134.6L402.7 141.6Z" fill="#10141c" stroke="#10141c"></path><path d="M712.1 708.1L692.1 626.9L653.9 721.1Z" fill="#11151d" stroke="#11151d"></path><path d="M723.1 597.6L751.4 590.6L724.1 513.3Z" fill="#0f131b" stroke="#0f131b"></path><path d="M724.1 513.3L777.4 464L715.1 455Z" fill="#0f131b" stroke="#0f131b"></path><path d="M65.3 500.3L56.3 587.6L113.6 514.3Z" fill="#131822" stroke="#131822"></path><path d="M186.9 782.4L260.1 759.4L177.9 723.1Z" fill="#11151d" stroke="#11151d"></path><path d="M323.4 849.7L377.7 778.4L303.4 771.4Z" fill="#11151d" stroke="#11151d"></path><path d="M238.1 142.6L175.9 195.9L274.1 176.9Z" fill="#10141b" stroke="#10141b"></path><path d="M56.3 587.6L64.3 622.9L137.6 582.6Z" fill="#12161f" stroke="#12161f"></path><path d="M137.6 781.4L177.9 723.1L137.6 709.1Z" fill="#0e1219" stroke="#0e1219"></path><path d="M137.6 781.4L186.9 782.4L177.9 723.1Z" fill="#131721" stroke="#131721"></path><path d="M783.4 531.3L777.4 464L724.1 513.3Z" fill="#121720" stroke="#121720"></path><path d="M722.1 378.7L760.4 329.4L715.1 340.4Z" fill="#0f131a" stroke="#0f131a"></path><path d="M655.9 238.1L648.9 199.9L575.6 262.1Z" fill="#0e1219" stroke="#0e1219"></path><path d="M575.6 185.9L526.3 118.6L506.3 203.9Z" fill="#0f131a" stroke="#0f131a"></path><path d="M718.1 177.9L648.9 199.9L655.9 238.1Z" fill="#0f131b" stroke="#0f131b"></path><path d="M714.1 250.1L654.9 319.4L715.1 340.4Z" fill="#11161e" stroke="#11161e"></path><path d="M777.4 464L769.4 398.7L715.1 455Z" fill="#10141b" stroke="#10141b"></path><path d="M238.1 821.7L303.4 771.4L260.1 759.4Z" fill="#0e1219" stroke="#0e1219"></path><path d="M186.9 782.4L238.1 821.7L260.1 759.4Z" fill="#11151d" stroke="#11151d"></path><path d="M316.4 134.6L238.1 142.6L274.1 176.9Z" fill="#11161e" stroke="#11161e"></path><path d="M723.1 768.4L712.1 708.1L653.9 721.1Z" fill="#10141c" stroke="#10141c"></path><path d="M751.4 590.6L783.4 531.3L724.1 513.3Z" fill="#121720" stroke="#121720"></path><path d="M845.7 560.6L783.4 531.3L751.4 590.6Z" fill="#11161e" stroke="#11161e"></path><path d="M566.6 128.6L526.3 118.6L575.6 185.9Z" fill="#12161f" stroke="#12161f"></path><path d="M379.7 51.3L331.4 76.3L402.7 141.6Z" fill="#131822" stroke="#131822"></path><path d="M75.3 276.1L119.6 324.4L136.6 263.1Z" fill="#0f131b" stroke="#0f131b"></path><path d="M75.3 276.1L56.3 320.4L119.6 324.4Z" fill="#0f131b" stroke="#0f131b"></path><path d="M83.3 404.7L0 455L78.3 454Z" fill="#131822" stroke="#131822"></path><path d="M65.3 500.3L0 527.3L56.3 587.6Z" fill="#12161f" stroke="#12161f"></path><path d="M760.4 329.4L714.1 250.1L715.1 340.4Z" fill="#10141c" stroke="#10141c"></path><path d="M769.4 398.7L760.4 329.4L722.1 378.7Z" fill="#121720" stroke="#121720"></path><path d="M467 900L515.3 854.7L439 831.7Z" fill="#0f131b" stroke="#0f131b"></path><path d="M439 831.7L515.3 854.7L526.3 759.4Z" fill="#131822" stroke="#131822"></path><path d="M637.9 755.4L723.1 768.4L653.9 721.1Z" fill="#0f131a" stroke="#0f131a"></path><path d="M399.7 900L439 831.7L377.7 848.7Z" fill="#131822" stroke="#131822"></path><path d="M658.9 127.6L566.6 128.6L575.6 185.9Z" fill="#10141b" stroke="#10141b"></path><path d="M658.9 127.6L575.6 185.9L648.9 199.9Z" fill="#131721" stroke="#131721"></path><path d="M129.6 194.9L75.3 276.1L136.6 263.1Z" fill="#10141b" stroke="#10141b"></path><path d="M129.6 194.9L136.6 263.1L175.9 195.9Z" fill="#0e1219" stroke="#0e1219"></path><path d="M179.9 134.6L129.6 194.9L175.9 195.9Z" fill="#121720" stroke="#121720"></path><path d="M515.3 854.7L589.6 836.7L571.6 776.4Z" fill="#11151d" stroke="#11151d"></path><path d="M79.3 718.1L137.6 781.4L137.6 709.1Z" fill="#12161f" stroke="#12161f"></path><path d="M186.9 782.4L174.9 816.7L238.1 821.7Z" fill="#11151d" stroke="#11151d"></path><path d="M0 694.1L79.3 718.1L64.3 622.9Z" fill="#10141b" stroke="#10141b"></path><path d="M64.3 622.9L79.3 718.1L131.6 639.9Z" fill="#121720" stroke="#121720"></path><path d="M765.4 691.1L783.4 627.9L692.1 626.9Z" fill="#10141c" stroke="#10141c"></path><path d="M137.6 781.4L174.9 816.7L186.9 782.4Z" fill="#11161e" stroke="#11161e"></path><path d="M269.1 900L323.4 900L323.4 849.7Z" fill="#12161f" stroke="#12161f"></path><path d="M0 382.7L0 455L83.3 404.7Z" fill="#10141c" stroke="#10141c"></path><path d="M56.3 587.6L0 590.6L64.3 622.9Z" fill="#11161e" stroke="#11161e"></path><path d="M0 455L0 527.3L65.3 500.3Z" fill="#131822" stroke="#131822"></path><path d="M379.7 51.3L402.7 141.6L439 132.6Z" fill="#11151d" stroke="#11151d"></path><path d="M316.4 134.6L269.1 58.3L238.1 142.6Z" fill="#0e1219" stroke="#0e1219"></path><path d="M238.1 142.6L179.9 134.6L175.9 195.9Z" fill="#0f131a" stroke="#0f131a"></path><path d="M186.9 72.3L179.9 134.6L238.1 142.6Z" fill="#10141c" stroke="#10141c"></path><path d="M712.1 708.1L765.4 691.1L692.1 626.9Z" fill="#0e1219" stroke="#0e1219"></path><path d="M757.4 766.4L765.4 691.1L712.1 708.1Z" fill="#0f131b" stroke="#0f131b"></path><path d="M323.4 900L377.7 848.7L323.4 849.7Z" fill="#10141b" stroke="#10141b"></path><path d="M323.4 900L399.7 900L377.7 848.7Z" fill="#131721" stroke="#131721"></path><path d="M515.3 854.7L529.3 900L589.6 836.7Z" fill="#131721" stroke="#131721"></path><path d="M56.3 320.4L0 382.7L83.3 404.7Z" fill="#10141c" stroke="#10141c"></path><path d="M0 319.4L0 382.7L56.3 320.4Z" fill="#0e1219" stroke="#0e1219"></path><path d="M0 319.4L56.3 320.4L75.3 276.1Z" fill="#0f131a" stroke="#0f131a"></path><path d="M0 527.3L0 590.6L56.3 587.6Z" fill="#0f131b" stroke="#0f131b"></path><path d="M830.7 509.3L777.4 464L783.4 531.3Z" fill="#121720" stroke="#121720"></path><path d="M830.7 509.3L825.7 449L777.4 464Z" fill="#12161f" stroke="#12161f"></path><path d="M777.4 464L819.7 401.7L769.4 398.7Z" fill="#0f131a" stroke="#0f131a"></path><path d="M769.4 398.7L819.7 401.7L760.4 329.4Z" fill="#131822" stroke="#131822"></path><path d="M399.7 900L467 900L439 831.7Z" fill="#11151d" stroke="#11151d"></path><path d="M825.7 449L819.7 401.7L777.4 464Z" fill="#0f131a" stroke="#0f131a"></path><path d="M760.4 329.4L779.4 260.1L714.1 250.1Z" fill="#11161e" stroke="#11161e"></path><path d="M269.1 900L323.4 849.7L238.1 821.7Z" fill="#0f131a" stroke="#0f131a"></path><path d="M845.7 560.6L830.7 509.3L783.4 531.3Z" fill="#11161e" stroke="#11161e"></path><path d="M845.7 560.6L751.4 590.6L783.4 627.9Z" fill="#0f131b" stroke="#0f131b"></path><path d="M657.9 829.7L637.9 755.4L589.6 836.7Z" fill="#12161f" stroke="#12161f"></path><path d="M693.1 818.7L723.1 768.4L637.9 755.4Z" fill="#0f131a" stroke="#0f131a"></path><path d="M508.3 51.3L449 57.3L526.3 118.6Z" fill="#0e1219" stroke="#0e1219"></path><path d="M526.3 118.6L449 57.3L439 132.6Z" fill="#131721" stroke="#131721"></path><path d="M653.9 900L657.9 829.7L589.6 836.7Z" fill="#121720" stroke="#121720"></path><path d="M449 57.3L379.7 51.3L439 132.6Z" fill="#10141b" stroke="#10141b"></path><path d="M331.4 76.3L269.1 58.3L316.4 134.6Z" fill="#131822" stroke="#131822"></path><path d="M79.3 718.1L72.3 770.4L137.6 781.4Z" fill="#10141b" stroke="#10141b"></path><path d="M0 590.6L0 634.9L64.3 622.9Z" fill="#11161e" stroke="#11161e"></path><path d="M467 900L529.3 900L515.3 854.7Z" fill="#11151d" stroke="#11151d"></path><path d="M820.7 264.1L779.4 260.1L760.4 329.4Z" fill="#0f131b" stroke="#0f131b"></path><path d="M705.1 147.6L658.9 127.6L648.9 199.9Z" fill="#0f131a" stroke="#0f131a"></path><path d="M718.1 177.9L655.9 238.1L714.1 250.1Z" fill="#11151d" stroke="#11151d"></path><path d="M589.6 64.3L508.3 51.3L526.3 118.6Z" fill="#0f131b" stroke="#0f131b"></path><path d="M782.4 183.9L718.1 177.9L714.1 250.1Z" fill="#12161f" stroke="#12161f"></path><path d="M46.3 203.9L75.3 276.1L129.6 194.9Z" fill="#131822" stroke="#131822"></path><path d="M0 243.1L0 319.4L75.3 276.1Z" fill="#121720" stroke="#121720"></path><path d="M195.9 900L269.1 900L238.1 821.7Z" fill="#131822" stroke="#131822"></path><path d="M0 776.4L72.3 770.4L79.3 718.1Z" fill="#12161f" stroke="#12161f"></path><path d="M137.6 781.4L144.6 844.7L174.9 816.7Z" fill="#10141c" stroke="#10141c"></path><path d="M174.9 816.7L195.9 900L238.1 821.7Z" fill="#10141c" stroke="#10141c"></path><path d="M719.1 900L693.1 818.7L657.9 829.7Z" fill="#0f131b" stroke="#0f131b"></path><path d="M657.9 829.7L693.1 818.7L637.9 755.4Z" fill="#131721" stroke="#131721"></path><path d="M589.6 64.3L526.3 118.6L566.6 128.6Z" fill="#0f131b" stroke="#0f131b"></path><path d="M449 57.3L403.7 0L379.7 51.3Z" fill="#0f131b" stroke="#0f131b"></path><path d="M339.4 0L269.1 58.3L331.4 76.3Z" fill="#0f131a" stroke="#0f131a"></path><path d="M70.3 849.7L144.6 844.7L137.6 781.4Z" fill="#0f131a" stroke="#0f131a"></path><path d="M851.7 658.9L783.4 627.9L765.4 691.1Z" fill="#11161e" stroke="#11161e"></path><path d="M851.7 658.9L845.7 560.6L783.4 627.9Z" fill="#10141b" stroke="#10141b"></path><path d="M830.7 509.3L900 501.3L825.7 449Z" fill="#10141b" stroke="#10141b"></path><path d="M849.7 309.4L760.4 329.4L819.7 401.7Z" fill="#121720" stroke="#121720"></path><path d="M718.1 177.9L705.1 147.6L648.9 199.9Z" fill="#0f131a" stroke="#0f131a"></path><path d="M658.9 127.6L589.6 64.3L566.6 128.6Z" fill="#10141b" stroke="#10141b"></path><path d="M753.4 137.6L705.1 147.6L718.1 177.9Z" fill="#11161e" stroke="#11161e"></path><path d="M755.4 833.7L757.4 766.4L723.1 768.4Z" fill="#11161e" stroke="#11161e"></path><path d="M723.1 768.4L757.4 766.4L712.1 708.1Z" fill="#0f131a" stroke="#0f131a"></path><path d="M58.3 124.6L46.3 203.9L129.6 194.9Z" fill="#121720" stroke="#121720"></path><path d="M121.6 118.6L129.6 194.9L179.9 134.6Z" fill="#0f131a" stroke="#0f131a"></path><path d="M629.9 57.3L589.6 64.3L658.9 127.6Z" fill="#11161e" stroke="#11161e"></path><path d="M0 634.9L0 694.1L64.3 622.9Z" fill="#0f131a" stroke="#0f131a"></path><path d="M529.3 900L595.6 900L589.6 836.7Z" fill="#11151d" stroke="#11151d"></path><path d="M844.7 780.4L827.7 715.1L757.4 766.4Z" fill="#11151d" stroke="#11151d"></path><path d="M186.9 72.3L121.6 118.6L179.9 134.6Z" fill="#11161e" stroke="#11161e"></path><path d="M269.1 58.3L186.9 72.3L238.1 142.6Z" fill="#11151d" stroke="#11151d"></path><path d="M123.6 900L195.9 900L144.6 844.7Z" fill="#131721" stroke="#131721"></path><path d="M144.6 844.7L195.9 900L174.9 816.7Z" fill="#12161f" stroke="#12161f"></path><path d="M849.7 309.4L820.7 264.1L760.4 329.4Z" fill="#0f131b" stroke="#0f131b"></path><path d="M779.4 260.1L782.4 183.9L714.1 250.1Z" fill="#11151d" stroke="#11151d"></path><path d="M849.7 309.4L819.7 401.7L900 378.7Z" fill="#12161f" stroke="#12161f"></path><path d="M0 188.9L0 243.1L46.3 203.9Z" fill="#131822" stroke="#131822"></path><path d="M46.3 203.9L0 243.1L75.3 276.1Z" fill="#12161f" stroke="#12161f"></path><path d="M900 435L819.7 401.7L825.7 449Z" fill="#131721" stroke="#131721"></path><path d="M827.7 715.1L851.7 658.9L765.4 691.1Z" fill="#11151d" stroke="#11151d"></path><path d="M845.7 560.6L900 501.3L830.7 509.3Z" fill="#11161e" stroke="#11161e"></path><path d="M687.1 53.3L658.9 127.6L705.1 147.6Z" fill="#0f131a" stroke="#0f131a"></path><path d="M687.1 53.3L629.9 57.3L658.9 127.6Z" fill="#131721" stroke="#131721"></path><path d="M518.3 0L438 0L508.3 51.3Z" fill="#10141c" stroke="#10141c"></path><path d="M825.7 197.9L782.4 183.9L779.4 260.1Z" fill="#0f131b" stroke="#0f131b"></path><path d="M825.7 197.9L779.4 260.1L820.7 264.1Z" fill="#11151d" stroke="#11151d"></path><path d="M757.4 766.4L827.7 715.1L765.4 691.1Z" fill="#10141c" stroke="#10141c"></path><path d="M755.4 833.7L723.1 768.4L693.1 818.7Z" fill="#0e1219" stroke="#0e1219"></path><path d="M438 0L403.7 0L449 57.3Z" fill="#131721" stroke="#131721"></path><path d="M379.7 51.3L339.4 0L331.4 76.3Z" fill="#121720" stroke="#121720"></path><path d="M269.1 58.3L245.1 0L186.9 72.3Z" fill="#131822" stroke="#131822"></path><path d="M438 0L449 57.3L508.3 51.3Z" fill="#11161e" stroke="#11161e"></path><path d="M518.3 0L508.3 51.3L573.6 0Z" fill="#10141c" stroke="#10141c"></path><path d="M595.6 900L653.9 900L589.6 836.7Z" fill="#0e1219" stroke="#0e1219"></path><path d="M403.7 0L339.4 0L379.7 51.3Z" fill="#11151d" stroke="#11151d"></path><path d="M782.4 183.9L753.4 137.6L718.1 177.9Z" fill="#121720" stroke="#121720"></path><path d="M900 589.6L900 501.3L845.7 560.6Z" fill="#11151d" stroke="#11151d"></path><path d="M719.1 900L755.4 833.7L693.1 818.7Z" fill="#121720" stroke="#121720"></path><path d="M573.6 0L508.3 51.3L589.6 64.3Z" fill="#131822" stroke="#131822"></path><path d="M900 501.3L900 435L825.7 449Z" fill="#0f131a" stroke="#0f131a"></path><path d="M0 836.7L70.3 849.7L72.3 770.4Z" fill="#0f131a" stroke="#0f131a"></path><path d="M72.3 770.4L70.3 849.7L137.6 781.4Z" fill="#121720" stroke="#121720"></path><path d="M121.6 118.6L58.3 124.6L129.6 194.9Z" fill="#0f131a" stroke="#0f131a"></path><path d="M77.3 55.3L58.3 124.6L121.6 118.6Z" fill="#131822" stroke="#131822"></path><path d="M124.6 57.3L121.6 118.6L186.9 72.3Z" fill="#11161e" stroke="#11161e"></path><path d="M0 694.1L0 776.4L79.3 718.1Z" fill="#0f131a" stroke="#0f131a"></path><path d="M58.3 124.6L0 188.9L46.3 203.9Z" fill="#131721" stroke="#131721"></path><path d="M70.3 849.7L123.6 900L144.6 844.7Z" fill="#10141c" stroke="#10141c"></path><path d="M900 435L900 378.7L819.7 401.7Z" fill="#0f131a" stroke="#0f131a"></path><path d="M900 238.1L825.7 197.9L820.7 264.1Z" fill="#10141c" stroke="#10141c"></path><path d="M900 649.9L900 589.6L851.7 658.9Z" fill="#11151d" stroke="#11151d"></path><path d="M851.7 658.9L900 589.6L845.7 560.6Z" fill="#12161f" stroke="#12161f"></path><path d="M900 238.1L820.7 264.1L849.7 309.4Z" fill="#131822" stroke="#131822"></path><path d="M826.7 113.6L779.4 75.3L753.4 137.6Z" fill="#0e1219" stroke="#0e1219"></path><path d="M339.4 0L245.1 0L269.1 58.3Z" fill="#0f131b" stroke="#0f131b"></path><path d="M130.6 0L124.6 57.3L186.9 72.3Z" fill="#0e1219" stroke="#0e1219"></path><path d="M622.9 0L573.6 0L589.6 64.3Z" fill="#131822" stroke="#131822"></path><path d="M622.9 0L589.6 64.3L629.9 57.3Z" fill="#0f131b" stroke="#0f131b"></path><path d="M779.4 75.3L687.1 53.3L753.4 137.6Z" fill="#11151d" stroke="#11151d"></path><path d="M753.4 137.6L687.1 53.3L705.1 147.6Z" fill="#10141c" stroke="#10141c"></path><path d="M900 378.7L900 321.4L849.7 309.4Z" fill="#12161f" stroke="#12161f"></path><path d="M653.9 900L719.1 900L657.9 829.7Z" fill="#12161f" stroke="#12161f"></path><path d="M900 726.1L851.7 658.9L827.7 715.1Z" fill="#121720" stroke="#121720"></path><path d="M844.7 780.4L757.4 766.4L755.4 833.7Z" fill="#11161e" stroke="#11161e"></path><path d="M900 726.1L900 649.9L851.7 658.9Z" fill="#10141b" stroke="#10141b"></path><path d="M245.1 0L199.9 0L186.9 72.3Z" fill="#10141c" stroke="#10141c"></path><path d="M687.1 53.3L622.9 0L629.9 57.3Z" fill="#10141c" stroke="#10141c"></path><path d="M851.7 848.7L844.7 780.4L755.4 833.7Z" fill="#11161e" stroke="#11161e"></path><path d="M0 776.4L0 836.7L72.3 770.4Z" fill="#11161e" stroke="#11161e"></path><path d="M70.3 849.7L53.3 900L123.6 900Z" fill="#121720" stroke="#121720"></path><path d="M130.6 0L77.3 55.3L124.6 57.3Z" fill="#0f131a" stroke="#0f131a"></path><path d="M124.6 57.3L77.3 55.3L121.6 118.6Z" fill="#12161f" stroke="#12161f"></path><path d="M58.3 124.6L0 113.6L0 188.9Z" fill="#10141b" stroke="#10141b"></path><path d="M0 836.7L53.3 900L70.3 849.7Z" fill="#11151d" stroke="#11151d"></path><path d="M0 73.3L0 113.6L58.3 124.6Z" fill="#12161f" stroke="#12161f"></path><path d="M900 755.4L900 726.1L827.7 715.1Z" fill="#0f131a" stroke="#0f131a"></path><path d="M900 321.4L900 238.1L849.7 309.4Z" fill="#0f131b" stroke="#0f131b"></path><path d="M826.7 113.6L753.4 137.6L782.4 183.9Z" fill="#0f131a" stroke="#0f131a"></path><path d="M826.7 113.6L782.4 183.9L825.7 197.9Z" fill="#10141c" stroke="#10141c"></path><path d="M687.1 53.3L722.1 0L622.9 0Z" fill="#0f131b" stroke="#0f131b"></path><path d="M719.1 900L769.4 900L755.4 833.7Z" fill="#131822" stroke="#131822"></path><path d="M844.7 780.4L900 755.4L827.7 715.1Z" fill="#11161e" stroke="#11161e"></path><path d="M199.9 0L130.6 0L186.9 72.3Z" fill="#11161e" stroke="#11161e"></path><path d="M77.3 55.3L0 73.3L58.3 124.6Z" fill="#12161f" stroke="#12161f"></path><path d="M900 177.9L826.7 113.6L825.7 197.9Z" fill="#0f131b" stroke="#0f131b"></path><path d="M900 851.7L900 755.4L844.7 780.4Z" fill="#131721" stroke="#131721"></path><path d="M0 0L0 73.3L77.3 55.3Z" fill="#10141c" stroke="#10141c"></path><path d="M769.4 900L851.7 848.7L755.4 833.7Z" fill="#131721" stroke="#131721"></path><path d="M757.4 0L722.1 0L779.4 75.3Z" fill="#11161e" stroke="#11161e"></path><path d="M779.4 75.3L722.1 0L687.1 53.3Z" fill="#11151d" stroke="#11151d"></path><path d="M900 238.1L900 177.9L825.7 197.9Z" fill="#10141c" stroke="#10141c"></path><path d="M844.7 0L757.4 0L779.4 75.3Z" fill="#11151d" stroke="#11151d"></path><path d="M0 836.7L0 900L53.3 900Z" fill="#0f131a" stroke="#0f131a"></path><path d="M130.6 0L72.3 0L77.3 55.3Z" fill="#0f131a" stroke="#0f131a"></path><path d="M847.7 60.3L779.4 75.3L826.7 113.6Z" fill="#12161f" stroke="#12161f"></path><path d="M769.4 900L835.7 900L851.7 848.7Z" fill="#0f131a" stroke="#0f131a"></path><path d="M851.7 848.7L900 851.7L844.7 780.4Z" fill="#0f131b" stroke="#0f131b"></path><path d="M900 111.6L847.7 60.3L826.7 113.6Z" fill="#11161e" stroke="#11161e"></path><path d="M900 900L900 851.7L851.7 848.7Z" fill="#0f131b" stroke="#0f131b"></path><path d="M900 177.9L900 111.6L826.7 113.6Z" fill="#10141b" stroke="#10141b"></path><path d="M72.3 0L0 0L77.3 55.3Z" fill="#10141b" stroke="#10141b"></path><path d="M835.7 900L900 900L851.7 848.7Z" fill="#12161f" stroke="#12161f"></path><path d="M900 111.6L900 64.3L847.7 60.3Z" fill="#10141c" stroke="#10141c"></path><path d="M847.7 60.3L844.7 0L779.4 75.3Z" fill="#131721" stroke="#131721"></path><path d="M900 0L844.7 0L847.7 60.3Z" fill="#12161f" stroke="#12161f"></path><path d="M900 64.3L900 0L847.7 60.3Z" fill="#12161f" stroke="#12161f"></path></g></svg>