<svg id="visual" viewBox="0 0 960 540" width="960" height="540" xmlns="http://www.w3.org/2000/svg" xmlns:xlink="http://www.w3.org/1999/xlink" version="1.1"><path d="M0 313L17.8 319.8C35.7 326.7 71.3 340.3 106.8 340.7C142.3 341 177.7 328 213.2 320.7C248.7 313.3 284.3 311.7 320 317.5C355.7 323.3 391.3 336.7 426.8 344.3C462.3 352 497.7 354 533.2 351.2C568.7 348.3 604.3 340.7 640 333.3C675.7 326 711.3 319 746.8 318.7C782.3 318.3 817.7 324.7 853.2 323.3C888.7 322 924.3 313 942.2 308.5L960 304L960 541L942.2 541C924.3 541 888.7 541 853.2 541C817.7 541 782.3 541 746.8 541C711.3 541 675.7 541 640 541C604.3 541 568.7 541 533.2 541C497.7 541 462.3 541 426.8 541C391.3 541 355.7 541 320 541C284.3 541 248.7 541 213.2 541C177.7 541 142.3 541 106.8 541C71.3 541 35.7 541 17.8 541L0 541Z" fill="#6990fa"></path><path d="M0 364L17.8 360.7C35.7 357.3 71.3 350.7 106.8 349C142.3 347.3 177.7 350.7 213.2 357.5C248.7 364.3 284.3 374.7 320 381.5C355.7 388.3 391.3 391.7 426.8 384.7C462.3 377.7 497.7 360.3 533.2 360.2C568.7 360 604.3 377 640 377C675.7 377 711.3 360 746.8 357C782.3 354 817.7 365 853.2 366C888.7 367 924.3 358 942.2 353.5L960 349L960 541L942.2 541C924.3 541 888.7 541 853.2 541C817.7 541 782.3 541 746.8 541C711.3 541 675.7 541 640 541C604.3 541 568.7 541 533.2 541C497.7 541 462.3 541 426.8 541C391.3 541 355.7 541 320 541C284.3 541 248.7 541 213.2 541C177.7 541 142.3 541 106.8 541C71.3 541 35.7 541 17.8 541L0 541Z" fill="#6281f4"></path><path d="M0 358L17.8 368C35.7 378 71.3 398 106.8 401.3C142.3 404.7 177.7 391.3 213.2 383C248.7 374.7 284.3 371.3 320 375.2C355.7 379 391.3 390 426.8 390C462.3 390 497.7 379 533.2 376.7C568.7 374.3 604.3 380.7 640 386C675.7 391.3 711.3 395.7 746.8 393.5C782.3 391.3 817.7 382.7 853.2 380.8C888.7 379 924.3 384 942.2 386.5L960 389L960 541L942.2 541C924.3 541 888.7 541 853.2 541C817.7 541 782.3 541 746.8 541C711.3 541 675.7 541 640 541C604.3 541 568.7 541 533.2 541C497.7 541 462.3 541 426.8 541C391.3 541 355.7 541 320 541C284.3 541 248.7 541 213.2 541C177.7 541 142.3 541 106.8 541C71.3 541 35.7 541 17.8 541L0 541Z" fill="#5d71ee"></path><path d="M0 392L17.8 394C35.7 396 71.3 400 106.8 409C142.3 418 177.7 432 213.2 436.7C248.7 441.3 284.3 436.7 320 427.7C355.7 418.7 391.3 405.3 426.8 401.2C462.3 397 497.7 402 533.2 406C568.7 410 604.3 413 640 416C675.7 419 711.3 422 746.8 426C782.3 430 817.7 435 853.2 437.3C888.7 439.7 924.3 439.3 942.2 439.2L960 439L960 541L942.2 541C924.3 541 888.7 541 853.2 541C817.7 541 782.3 541 746.8 541C711.3 541 675.7 541 640 541C604.3 541 568.7 541 533.2 541C497.7 541 462.3 541 426.8 541C391.3 541 355.7 541 320 541C284.3 541 248.7 541 213.2 541C177.7 541 142.3 541 106.8 541C71.3 541 35.7 541 17.8 541L0 541Z" fill="#5b61e6"></path><path d="M0 435L17.8 434.3C35.7 433.7 71.3 432.3 106.8 434.2C142.3 436 177.7 441 213.2 445C248.7 449 284.3 452 320 449.8C355.7 447.7 391.3 440.3 426.8 435.7C462.3 431 497.7 429 533.2 432.3C568.7 435.7 604.3 444.3 640 449.8C675.7 455.3 711.3 457.7 746.8 454.8C782.3 452 817.7 444 853.2 445.3C888.7 446.7 924.3 457.3 942.2 462.7L960 468L960 541L942.2 541C924.3 541 888.7 541 853.2 541C817.7 541 782.3 541 746.8 541C711.3 541 675.7 541 640 541C604.3 541 568.7 541 533.2 541C497.7 541 462.3 541 426.8 541C391.3 541 355.7 541 320 541C284.3 541 248.7 541 213.2 541C177.7 541 142.3 541 106.8 541C71.3 541 35.7 541 17.8 541L0 541Z" fill="#5b50dd"></path><path d="M0 463L17.8 467.3C35.7 471.7 71.3 480.3 106.8 482.3C142.3 484.3 177.7 479.7 213.2 474.2C248.7 468.7 284.3 462.3 320 465.3C355.7 468.3 391.3 480.7 426.8 482C462.3 483.3 497.7 473.7 533.2 470.2C568.7 466.7 604.3 469.3 640 468.5C675.7 467.7 711.3 463.3 746.8 464.3C782.3 465.3 817.7 471.7 853.2 474.8C888.7 478 924.3 478 942.2 478L960 478L960 541L942.2 541C924.3 541 888.7 541 853.2 541C817.7 541 782.3 541 746.8 541C711.3 541 675.7 541 640 541C604.3 541 568.7 541 533.2 541C497.7 541 462.3 541 426.8 541C391.3 541 355.7 541 320 541C284.3 541 248.7 541 213.2 541C177.7 541 142.3 541 106.8 541C71.3 541 35.7 541 17.8 541L0 541Z" fill="#5c3cd3"></path><path d="M0 501L17.8 504.7C35.7 508.3 71.3 515.7 106.8 515.2C142.3 514.7 177.7 506.3 213.2 506.2C248.7 506 284.3 514 320 512C355.7 510 391.3 498 426.8 492.8C462.3 487.7 497.7 489.3 533.2 491.2C568.7 493 604.3 495 640 496.2C675.7 497.3 711.3 497.7 746.8 500.3C782.3 503 817.7 508 853.2 506.7C888.7 505.3 924.3 497.7 942.2 493.8L960 490L960 541L942.2 541C924.3 541 888.7 541 853.2 541C817.7 541 782.3 541 746.8 541C711.3 541 675.7 541 640 541C604.3 541 568.7 541 533.2 541C497.7 541 462.3 541 426.8 541C391.3 541 355.7 541 320 541C284.3 541 248.7 541 213.2 541C177.7 541 142.3 541 106.8 541C71.3 541 35.7 541 17.8 541L0 541Z" fill="#5f24c7"></path></svg>