<svg id="visual" viewBox="0 0 960 540" width="960" height="540" xmlns="http://www.w3.org/2000/svg" xmlns:xlink="http://www.w3.org/1999/xlink" version="1.1"><path d="M0 231L17.8 237.2C35.7 243.3 71.3 255.7 106.8 255.3C142.3 255 177.7 242 213.2 247.8C248.7 253.7 284.3 278.3 320 280.2C355.7 282 391.3 261 426.8 244.5C462.3 228 497.7 216 533.2 224.3C568.7 232.7 604.3 261.3 640 268.5C675.7 275.7 711.3 261.3 746.8 258C782.3 254.7 817.7 262.3 853.2 257.2C888.7 252 924.3 234 942.2 225L960 216L960 541L942.2 541C924.3 541 888.7 541 853.2 541C817.7 541 782.3 541 746.8 541C711.3 541 675.7 541 640 541C604.3 541 568.7 541 533.2 541C497.7 541 462.3 541 426.8 541C391.3 541 355.7 541 320 541C284.3 541 248.7 541 213.2 541C177.7 541 142.3 541 106.8 541C71.3 541 35.7 541 17.8 541L0 541Z" fill="#6990fa"></path><path d="M0 301L17.8 296.3C35.7 291.7 71.3 282.3 106.8 282.5C142.3 282.7 177.7 292.3 213.2 293C248.7 293.7 284.3 285.3 320 289.3C355.7 293.3 391.3 309.7 426.8 306C462.3 302.3 497.7 278.7 533.2 276.2C568.7 273.7 604.3 292.3 640 302C675.7 311.7 711.3 312.3 746.8 302.5C782.3 292.7 817.7 272.3 853.2 273.7C888.7 275 924.3 298 942.2 309.5L960 321L960 541L942.2 541C924.3 541 888.7 541 853.2 541C817.7 541 782.3 541 746.8 541C711.3 541 675.7 541 640 541C604.3 541 568.7 541 533.2 541C497.7 541 462.3 541 426.8 541C391.3 541 355.7 541 320 541C284.3 541 248.7 541 213.2 541C177.7 541 142.3 541 106.8 541C71.3 541 35.7 541 17.8 541L0 541Z" fill="#6281f4"></path><path d="M0 319L17.8 321.7C35.7 324.3 71.3 329.7 106.8 328.5C142.3 327.3 177.7 319.7 213.2 321.5C248.7 323.3 284.3 334.7 320 338.2C355.7 341.7 391.3 337.3 426.8 337C462.3 336.7 497.7 340.3 533.2 343.5C568.7 346.7 604.3 349.3 640 352.8C675.7 356.3 711.3 360.7 746.8 354.8C782.3 349 817.7 333 853.2 327.7C888.7 322.3 924.3 327.7 942.2 330.3L960 333L960 541L942.2 541C924.3 541 888.7 541 853.2 541C817.7 541 782.3 541 746.8 541C711.3 541 675.7 541 640 541C604.3 541 568.7 541 533.2 541C497.7 541 462.3 541 426.8 541C391.3 541 355.7 541 320 541C284.3 541 248.7 541 213.2 541C177.7 541 142.3 541 106.8 541C71.3 541 35.7 541 17.8 541L0 541Z" fill="#5d71ee"></path><path d="M0 406L17.8 402C35.7 398 71.3 390 106.8 384.2C142.3 378.3 177.7 374.7 213.2 373.5C248.7 372.3 284.3 373.7 320 376.5C355.7 379.3 391.3 383.7 426.8 377.7C462.3 371.7 497.7 355.3 533.2 358.2C568.7 361 604.3 383 640 385C675.7 387 711.3 369 746.8 363.3C782.3 357.7 817.7 364.3 853.2 369.5C888.7 374.7 924.3 378.3 942.2 380.2L960 382L960 541L942.2 541C924.3 541 888.7 541 853.2 541C817.7 541 782.3 541 746.8 541C711.3 541 675.7 541 640 541C604.3 541 568.7 541 533.2 541C497.7 541 462.3 541 426.8 541C391.3 541 355.7 541 320 541C284.3 541 248.7 541 213.2 541C177.7 541 142.3 541 106.8 541C71.3 541 35.7 541 17.8 541L0 541Z" fill="#5b61e6"></path><path d="M0 426L17.8 418.5C35.7 411 71.3 396 106.8 389.8C142.3 383.7 177.7 386.3 213.2 387.5C248.7 388.7 284.3 388.3 320 395C355.7 401.7 391.3 415.3 426.8 414.5C462.3 413.7 497.7 398.3 533.2 396.2C568.7 394 604.3 405 640 406.3C675.7 407.7 711.3 399.3 746.8 402C782.3 404.7 817.7 418.3 853.2 416.5C888.7 414.7 924.3 397.3 942.2 388.7L960 380L960 541L942.2 541C924.3 541 888.7 541 853.2 541C817.7 541 782.3 541 746.8 541C711.3 541 675.7 541 640 541C604.3 541 568.7 541 533.2 541C497.7 541 462.3 541 426.8 541C391.3 541 355.7 541 320 541C284.3 541 248.7 541 213.2 541C177.7 541 142.3 541 106.8 541C71.3 541 35.7 541 17.8 541L0 541Z" fill="#5b50dd"></path><path d="M0 476L17.8 471.2C35.7 466.3 71.3 456.7 106.8 457.5C142.3 458.3 177.7 469.7 213.2 468.5C248.7 467.3 284.3 453.7 320 446.3C355.7 439 391.3 438 426.8 434.8C462.3 431.7 497.7 426.3 533.2 424.3C568.7 422.3 604.3 423.7 640 432.3C675.7 441 711.3 457 746.8 456.7C782.3 456.3 817.7 439.7 853.2 432.8C888.7 426 924.3 429 942.2 430.5L960 432L960 541L942.2 541C924.3 541 888.7 541 853.2 541C817.7 541 782.3 541 746.8 541C711.3 541 675.7 541 640 541C604.3 541 568.7 541 533.2 541C497.7 541 462.3 541 426.8 541C391.3 541 355.7 541 320 541C284.3 541 248.7 541 213.2 541C177.7 541 142.3 541 106.8 541C71.3 541 35.7 541 17.8 541L0 541Z" fill="#5c3cd3"></path><path d="M0 478L17.8 484.7C35.7 491.3 71.3 504.7 106.8 509.5C142.3 514.3 177.7 510.7 213.2 504.8C248.7 499 284.3 491 320 490.5C355.7 490 391.3 497 426.8 496.2C462.3 495.3 497.7 486.7 533.2 489C568.7 491.3 604.3 504.7 640 506.5C675.7 508.3 711.3 498.7 746.8 490.5C782.3 482.3 817.7 475.7 853.2 475.3C888.7 475 924.3 481 942.2 484L960 487L960 541L942.2 541C924.3 541 888.7 541 853.2 541C817.7 541 782.3 541 746.8 541C711.3 541 675.7 541 640 541C604.3 541 568.7 541 533.2 541C497.7 541 462.3 541 426.8 541C391.3 541 355.7 541 320 541C284.3 541 248.7 541 213.2 541C177.7 541 142.3 541 106.8 541C71.3 541 35.7 541 17.8 541L0 541Z" fill="#5f24c7"></path></svg>