<svg id="visual" viewBox="0 0 960 540" width="960" height="540" xmlns="http://www.w3.org/2000/svg" xmlns:xlink="http://www.w3.org/1999/xlink" version="1.1"><path d="M0 275L17.8 270C35.7 265 71.3 255 106.8 246C142.3 237 177.7 229 213.2 232.7C248.7 236.3 284.3 251.7 320 256.7C355.7 261.7 391.3 256.3 426.8 249.3C462.3 242.3 497.7 233.7 533.2 226.5C568.7 219.3 604.3 213.7 640 222.3C675.7 231 711.3 254 746.8 260.7C782.3 267.3 817.7 257.7 853.2 254.7C888.7 251.7 924.3 255.3 942.2 257.2L960 259L960 541L942.2 541C924.3 541 888.7 541 853.2 541C817.7 541 782.3 541 746.8 541C711.3 541 675.7 541 640 541C604.3 541 568.7 541 533.2 541C497.7 541 462.3 541 426.8 541C391.3 541 355.7 541 320 541C284.3 541 248.7 541 213.2 541C177.7 541 142.3 541 106.8 541C71.3 541 35.7 541 17.8 541L0 541Z" fill="#6990fa"></path><path d="M0 265L17.8 274.5C35.7 284 71.3 303 106.8 312C142.3 321 177.7 320 213.2 313C248.7 306 284.3 293 320 285.8C355.7 278.7 391.3 277.3 426.8 285.5C462.3 293.7 497.7 311.3 533.2 308.8C568.7 306.3 604.3 283.7 640 280.2C675.7 276.7 711.3 292.3 746.8 303.3C782.3 314.3 817.7 320.7 853.2 321.2C888.7 321.7 924.3 316.3 942.2 313.7L960 311L960 541L942.2 541C924.3 541 888.7 541 853.2 541C817.7 541 782.3 541 746.8 541C711.3 541 675.7 541 640 541C604.3 541 568.7 541 533.2 541C497.7 541 462.3 541 426.8 541C391.3 541 355.7 541 320 541C284.3 541 248.7 541 213.2 541C177.7 541 142.3 541 106.8 541C71.3 541 35.7 541 17.8 541L0 541Z" fill="#6281f4"></path><path d="M0 341L17.8 344.5C35.7 348 71.3 355 106.8 353.2C142.3 351.3 177.7 340.7 213.2 335.2C248.7 329.7 284.3 329.3 320 333.7C355.7 338 391.3 347 426.8 347.5C462.3 348 497.7 340 533.2 342.8C568.7 345.7 604.3 359.3 640 360C675.7 360.7 711.3 348.3 746.8 348.5C782.3 348.7 817.7 361.3 853.2 364.3C888.7 367.3 924.3 360.7 942.2 357.3L960 354L960 541L942.2 541C924.3 541 888.7 541 853.2 541C817.7 541 782.3 541 746.8 541C711.3 541 675.7 541 640 541C604.3 541 568.7 541 533.2 541C497.7 541 462.3 541 426.8 541C391.3 541 355.7 541 320 541C284.3 541 248.7 541 213.2 541C177.7 541 142.3 541 106.8 541C71.3 541 35.7 541 17.8 541L0 541Z" fill="#5d71ee"></path><path d="M0 365L17.8 360C35.7 355 71.3 345 106.8 350.7C142.3 356.3 177.7 377.7 213.2 384.7C248.7 391.7 284.3 384.3 320 384.3C355.7 384.3 391.3 391.7 426.8 388.8C462.3 386 497.7 373 533.2 361.8C568.7 350.7 604.3 341.3 640 347.7C675.7 354 711.3 376 746.8 383.5C782.3 391 817.7 384 853.2 379.3C888.7 374.7 924.3 372.3 942.2 371.2L960 370L960 541L942.2 541C924.3 541 888.7 541 853.2 541C817.7 541 782.3 541 746.8 541C711.3 541 675.7 541 640 541C604.3 541 568.7 541 533.2 541C497.7 541 462.3 541 426.8 541C391.3 541 355.7 541 320 541C284.3 541 248.7 541 213.2 541C177.7 541 142.3 541 106.8 541C71.3 541 35.7 541 17.8 541L0 541Z" fill="#5b61e6"></path><path d="M0 429L17.8 426.5C35.7 424 71.3 419 106.8 410.2C142.3 401.3 177.7 388.7 213.2 391.5C248.7 394.3 284.3 412.7 320 423.5C355.7 434.3 391.3 437.7 426.8 439C462.3 440.3 497.7 439.7 533.2 438.8C568.7 438 604.3 437 640 434.2C675.7 431.3 711.3 426.7 746.8 417.5C782.3 408.3 817.7 394.7 853.2 397.3C888.7 400 924.3 419 942.2 428.5L960 438L960 541L942.2 541C924.3 541 888.7 541 853.2 541C817.7 541 782.3 541 746.8 541C711.3 541 675.7 541 640 541C604.3 541 568.7 541 533.2 541C497.7 541 462.3 541 426.8 541C391.3 541 355.7 541 320 541C284.3 541 248.7 541 213.2 541C177.7 541 142.3 541 106.8 541C71.3 541 35.7 541 17.8 541L0 541Z" fill="#5b50dd"></path><path d="M0 457L17.8 453.5C35.7 450 71.3 443 106.8 442.8C142.3 442.7 177.7 449.3 213.2 451.7C248.7 454 284.3 452 320 451.7C355.7 451.3 391.3 452.7 426.8 453.3C462.3 454 497.7 454 533.2 456.7C568.7 459.3 604.3 464.7 640 463.2C675.7 461.7 711.3 453.3 746.8 453.5C782.3 453.7 817.7 462.3 853.2 468.5C888.7 474.7 924.3 478.3 942.2 480.2L960 482L960 541L942.2 541C924.3 541 888.7 541 853.2 541C817.7 541 782.3 541 746.8 541C711.3 541 675.7 541 640 541C604.3 541 568.7 541 533.2 541C497.7 541 462.3 541 426.8 541C391.3 541 355.7 541 320 541C284.3 541 248.7 541 213.2 541C177.7 541 142.3 541 106.8 541C71.3 541 35.7 541 17.8 541L0 541Z" fill="#5c3cd3"></path><path d="M0 468L17.8 476.2C35.7 484.3 71.3 500.7 106.8 503C142.3 505.3 177.7 493.7 213.2 491.7C248.7 489.7 284.3 497.3 320 495.8C355.7 494.3 391.3 483.7 426.8 485.5C462.3 487.3 497.7 501.7 533.2 500.3C568.7 499 604.3 482 640 482.2C675.7 482.3 711.3 499.7 746.8 501.3C782.3 503 817.7 489 853.2 484C888.7 479 924.3 483 942.2 485L960 487L960 541L942.2 541C924.3 541 888.7 541 853.2 541C817.7 541 782.3 541 746.8 541C711.3 541 675.7 541 640 541C604.3 541 568.7 541 533.2 541C497.7 541 462.3 541 426.8 541C391.3 541 355.7 541 320 541C284.3 541 248.7 541 213.2 541C177.7 541 142.3 541 106.8 541C71.3 541 35.7 541 17.8 541L0 541Z" fill="#5f24c7"></path></svg>