<svg id="visual" viewBox="0 0 960 540" width="960" height="540" xmlns="http://www.w3.org/2000/svg" xmlns:xlink="http://www.w3.org/1999/xlink" version="1.1"><path d="M0 209L17.8 215.3C35.7 221.7 71.3 234.3 106.8 238.3C142.3 242.3 177.7 237.7 213.2 242.8C248.7 248 284.3 263 320 260.3C355.7 257.7 391.3 237.3 426.8 227.7C462.3 218 497.7 219 533.2 225.3C568.7 231.7 604.3 243.3 640 250.3C675.7 257.3 711.3 259.7 746.8 257.3C782.3 255 817.7 248 853.2 241.5C888.7 235 924.3 229 942.2 226L960 223L960 541L942.2 541C924.3 541 888.7 541 853.2 541C817.7 541 782.3 541 746.8 541C711.3 541 675.7 541 640 541C604.3 541 568.7 541 533.2 541C497.7 541 462.3 541 426.8 541C391.3 541 355.7 541 320 541C284.3 541 248.7 541 213.2 541C177.7 541 142.3 541 106.8 541C71.3 541 35.7 541 17.8 541L0 541Z" fill="#6990fa"></path><path d="M0 250L17.8 250.7C35.7 251.3 71.3 252.7 106.8 257.7C142.3 262.7 177.7 271.3 213.2 272C248.7 272.7 284.3 265.3 320 267.2C355.7 269 391.3 280 426.8 290.7C462.3 301.3 497.7 311.7 533.2 308.7C568.7 305.7 604.3 289.3 640 288.7C675.7 288 711.3 303 746.8 308.5C782.3 314 817.7 310 853.2 306.5C888.7 303 924.3 300 942.2 298.5L960 297L960 541L942.2 541C924.3 541 888.7 541 853.2 541C817.7 541 782.3 541 746.8 541C711.3 541 675.7 541 640 541C604.3 541 568.7 541 533.2 541C497.7 541 462.3 541 426.8 541C391.3 541 355.7 541 320 541C284.3 541 248.7 541 213.2 541C177.7 541 142.3 541 106.8 541C71.3 541 35.7 541 17.8 541L0 541Z" fill="#6281f4"></path><path d="M0 297L17.8 302.2C35.7 307.3 71.3 317.7 106.8 319.7C142.3 321.7 177.7 315.3 213.2 313.3C248.7 311.3 284.3 313.7 320 320.7C355.7 327.7 391.3 339.3 426.8 344.5C462.3 349.7 497.7 348.3 533.2 339C568.7 329.7 604.3 312.3 640 305.3C675.7 298.3 711.3 301.7 746.8 309C782.3 316.3 817.7 327.7 853.2 336.8C888.7 346 924.3 353 942.2 356.5L960 360L960 541L942.2 541C924.3 541 888.7 541 853.2 541C817.7 541 782.3 541 746.8 541C711.3 541 675.7 541 640 541C604.3 541 568.7 541 533.2 541C497.7 541 462.3 541 426.8 541C391.3 541 355.7 541 320 541C284.3 541 248.7 541 213.2 541C177.7 541 142.3 541 106.8 541C71.3 541 35.7 541 17.8 541L0 541Z" fill="#5d71ee"></path><path d="M0 361L17.8 362.8C35.7 364.7 71.3 368.3 106.8 373.2C142.3 378 177.7 384 213.2 382.7C248.7 381.3 284.3 372.7 320 367.2C355.7 361.7 391.3 359.3 426.8 363.7C462.3 368 497.7 379 533.2 380.5C568.7 382 604.3 374 640 365.7C675.7 357.3 711.3 348.7 746.8 346.7C782.3 344.7 817.7 349.3 853.2 352.2C888.7 355 924.3 356 942.2 356.5L960 357L960 541L942.2 541C924.3 541 888.7 541 853.2 541C817.7 541 782.3 541 746.8 541C711.3 541 675.7 541 640 541C604.3 541 568.7 541 533.2 541C497.7 541 462.3 541 426.8 541C391.3 541 355.7 541 320 541C284.3 541 248.7 541 213.2 541C177.7 541 142.3 541 106.8 541C71.3 541 35.7 541 17.8 541L0 541Z" fill="#5b61e6"></path><path d="M0 424L17.8 417.5C35.7 411 71.3 398 106.8 396.3C142.3 394.7 177.7 404.3 213.2 413.5C248.7 422.7 284.3 431.3 320 434.8C355.7 438.3 391.3 436.7 426.8 433.3C462.3 430 497.7 425 533.2 417.5C568.7 410 604.3 400 640 401.7C675.7 403.3 711.3 416.7 746.8 421.5C782.3 426.3 817.7 422.7 853.2 424.3C888.7 426 924.3 433 942.2 436.5L960 440L960 541L942.2 541C924.3 541 888.7 541 853.2 541C817.7 541 782.3 541 746.8 541C711.3 541 675.7 541 640 541C604.3 541 568.7 541 533.2 541C497.7 541 462.3 541 426.8 541C391.3 541 355.7 541 320 541C284.3 541 248.7 541 213.2 541C177.7 541 142.3 541 106.8 541C71.3 541 35.7 541 17.8 541L0 541Z" fill="#5b50dd"></path><path d="M0 441L17.8 444.8C35.7 448.7 71.3 456.3 106.8 460.3C142.3 464.3 177.7 464.7 213.2 460.7C248.7 456.7 284.3 448.3 320 448.5C355.7 448.7 391.3 457.3 426.8 459.3C462.3 461.3 497.7 456.7 533.2 451.7C568.7 446.7 604.3 441.3 640 443.8C675.7 446.3 711.3 456.7 746.8 458C782.3 459.3 817.7 451.7 853.2 451.7C888.7 451.7 924.3 459.3 942.2 463.2L960 467L960 541L942.2 541C924.3 541 888.7 541 853.2 541C817.7 541 782.3 541 746.8 541C711.3 541 675.7 541 640 541C604.3 541 568.7 541 533.2 541C497.7 541 462.3 541 426.8 541C391.3 541 355.7 541 320 541C284.3 541 248.7 541 213.2 541C177.7 541 142.3 541 106.8 541C71.3 541 35.7 541 17.8 541L0 541Z" fill="#5c3cd3"></path><path d="M0 479L17.8 484.3C35.7 489.7 71.3 500.3 106.8 501.8C142.3 503.3 177.7 495.7 213.2 489.5C248.7 483.3 284.3 478.7 320 481.2C355.7 483.7 391.3 493.3 426.8 499C462.3 504.7 497.7 506.3 533.2 502.7C568.7 499 604.3 490 640 487C675.7 484 711.3 487 746.8 490.5C782.3 494 817.7 498 853.2 500.8C888.7 503.7 924.3 505.3 942.2 506.2L960 507L960 541L942.2 541C924.3 541 888.7 541 853.2 541C817.7 541 782.3 541 746.8 541C711.3 541 675.7 541 640 541C604.3 541 568.7 541 533.2 541C497.7 541 462.3 541 426.8 541C391.3 541 355.7 541 320 541C284.3 541 248.7 541 213.2 541C177.7 541 142.3 541 106.8 541C71.3 541 35.7 541 17.8 541L0 541Z" fill="#5f24c7"></path></svg>